<svg width="109" height="105" viewBox="0 0 109 105" fill="none" xmlns="http://www.w3.org/2000/svg">
<path d="M95.7132 31.5789L56.6342 10.5263C55.8526 10.2632 55.0711 10 54.2895 10C53.5079 10 52.7263 10.2632 51.9447 10.5263L12.8658 31.5789C11.0421 32.6316 10 34.4737 10 36.3158V44.2105L32.9263 62.6316L20.4211 72.6316V79.4737L37.8763 65.2632H70.4421L87.8974 79.4737V72.6316L75.6526 62.6316L93.3684 48.4211V88.9474H15.2105V55L10 50.7895V88.9474C10 91.8421 12.3447 94.2105 15.2105 94.2105H93.3684C96.2342 94.2105 98.5789 91.8421 98.5789 88.9474V36.3158C98.5789 34.4737 97.5368 32.6316 95.7132 31.5789ZM93.3684 41.5789L70.7026 60H37.8763L15.2105 41.5789V36.3158L54.2895 15.2632L93.3684 36.3158V41.5789Z" fill="#231F20"/>
</svg>
