<svg width="19" height="18" viewBox="0 0 19 18" fill="none" xmlns="http://www.w3.org/2000/svg">
<mask id="mask0_124_236" style="mask-type:luminance" maskUnits="userSpaceOnUse" x="0" y="0" width="19" height="18">
<rect x="0.499634" y="-3.05176e-05" width="18" height="18" fill="white"/>
</mask>
<g mask="url(#mask0_124_236)">
<path fill-rule="evenodd" clip-rule="evenodd" d="M16.8538 7.53109H16.2496V7.49997H9.49963V10.5H13.7383C13.1199 12.2463 11.4583 13.5 9.49963 13.5C7.01451 13.5 4.99963 11.4851 4.99963 8.99997C4.99963 6.51484 7.01451 4.49997 9.49963 4.49997C10.6468 4.49997 11.6904 4.93272 12.485 5.63959L14.6064 3.51822C13.2669 2.26984 11.4751 1.49997 9.49963 1.49997C5.35776 1.49997 1.99963 4.85809 1.99963 8.99997C1.99963 13.1418 5.35776 16.5 9.49963 16.5C13.6415 16.5 16.9996 13.1418 16.9996 8.99997C16.9996 8.49709 16.9479 8.00622 16.8538 7.53109Z" fill="#FFC107"/>
<path fill-rule="evenodd" clip-rule="evenodd" d="M2.86438 5.50909L5.32851 7.31622C5.99525 5.66547 7.61001 4.49997 9.49963 4.49997C10.6468 4.49997 11.6904 4.93272 12.485 5.63959L14.6064 3.51822C13.2669 2.26984 11.4751 1.49997 9.49963 1.49997C6.61888 1.49997 4.12063 3.12634 2.86438 5.50909Z" fill="#FF3D00"/>
<path fill-rule="evenodd" clip-rule="evenodd" d="M9.49963 16.5C11.4369 16.5 13.1971 15.7586 14.528 14.553L12.2068 12.5887C11.4538 13.1591 10.5178 13.5 9.49963 13.5C7.54888 13.5 5.8925 12.2561 5.2685 10.5202L2.82275 12.4046C4.064 14.8335 6.58475 16.5 9.49963 16.5Z" fill="#4CAF50"/>
<path fill-rule="evenodd" clip-rule="evenodd" d="M16.8538 7.53109H16.2496V7.49997H9.49963V10.5H13.7383C13.4413 11.3388 12.9016 12.0622 12.2056 12.5891C12.206 12.5887 12.2064 12.5887 12.2068 12.5883L14.528 14.5526C14.3638 14.7018 16.9996 12.75 16.9996 8.99997C16.9996 8.49709 16.9479 8.00622 16.8538 7.53109Z" fill="#1976D2"/>
</g>
</svg>
