<svg width="50" height="50" viewBox="0 0 50 50" fill="none" xmlns="http://www.w3.org/2000/svg">
<path fill-rule="evenodd" clip-rule="evenodd" d="M20.4651 11.5873L31.7411 16.6605C35.1688 18.2026 37.8665 19.4163 39.6965 20.5656C41.5041 21.7008 42.9166 23.0468 42.9166 24.9998C42.9166 26.9528 41.5041 28.2987 39.6965 29.4339C37.8665 30.5833 35.1688 31.7969 31.7411 33.3391L20.4651 38.4123C18.37 39.3549 16.7402 40.0882 15.4676 40.564C14.2223 41.0297 13.1093 41.3356 12.1197 41.2279C9.7193 40.9669 7.6538 39.3209 7.15391 36.9971C6.94203 36.0122 7.23829 34.9104 7.66395 33.7658C8.10467 32.5807 8.80514 31.0591 9.69751 29.1206L9.72157 29.0683C10.419 27.5533 10.6874 26.9555 10.8244 26.359C11.0304 25.4619 11.0304 24.5377 10.8244 23.6405C10.6874 23.0441 10.419 22.4462 9.72157 20.9312L9.69751 20.8789C8.80513 18.9404 8.10467 17.4188 7.66395 16.2337C7.23829 15.0892 6.94203 13.9874 7.15391 13.0025C7.65381 10.6786 9.7193 9.03263 12.1197 8.7716C13.1093 8.66399 14.2223 8.96982 15.4676 9.4355C16.7402 9.91139 18.37 10.6447 20.4651 11.5873ZM14.592 11.7771C13.3683 11.3196 12.7432 11.2185 12.3899 11.257C10.9098 11.4179 9.84092 12.399 9.598 13.5282C9.5528 13.7383 9.58436 14.2254 10.0072 15.3623C10.4109 16.4481 11.0709 17.8838 11.9925 19.8858C12.0127 19.9297 12.0327 19.973 12.0524 20.0158C12.6707 21.3586 13.0591 22.2021 13.261 23.081C13.5515 24.3464 13.5515 25.6532 13.261 26.9186C13.0591 27.7974 12.6707 28.6409 12.0524 29.9837C12.0326 30.0266 12.0127 30.0699 11.9925 30.1137C11.0709 32.1157 10.4109 33.5515 10.0072 34.6372C9.58436 35.7741 9.5528 36.2612 9.59799 36.4713C9.84091 37.6005 10.9098 38.5816 12.3899 38.7426C12.7432 38.781 13.3683 38.68 14.592 38.2224C15.7792 37.7785 17.3349 37.0792 19.4845 36.1121L30.6143 31.1047C34.1648 29.5073 36.7018 28.3626 38.3669 27.3168C40.0725 26.2457 40.4166 25.5498 40.4166 24.9998C40.4166 24.4497 40.0725 23.7539 38.3669 22.6827C36.7018 21.637 34.1648 20.4923 30.6143 18.8949L19.4845 13.8875C17.3349 12.9203 15.7792 12.2211 14.592 11.7771Z" fill="#A9D4FF"/>
</svg>
