<svg width="37" height="37" viewBox="0 0 37 37" fill="none" xmlns="http://www.w3.org/2000/svg">
<path d="M18.5003 34.8875C17.4674 34.8875 16.4191 34.6562 15.602 34.1783L7.12287 29.2912C3.66954 26.9633 3.4537 26.6087 3.4537 22.955V14.0442C3.4537 10.3904 3.65412 10.0358 7.04579 7.73874L15.5866 2.80541C17.2053 1.86499 19.7491 1.86499 21.3678 2.80541L29.8778 7.70791C33.3312 10.0358 33.547 10.3904 33.547 14.0442V22.9396C33.547 26.5933 33.3466 26.9479 29.9549 29.245L21.4141 34.1783C20.5816 34.6562 19.5332 34.8875 18.5003 34.8875ZM18.5003 4.42416C17.8528 4.42416 17.2207 4.54749 16.7737 4.80958L8.29454 9.71208C5.78162 11.4079 5.78162 11.4079 5.78162 14.0442V22.9396C5.78162 25.5758 5.78162 25.5758 8.3562 27.3179L16.7737 32.1742C17.6832 32.6983 19.3328 32.6983 20.2424 32.1742L28.7216 27.2717C31.2191 25.5758 31.2191 25.5758 31.2191 22.9396V14.0442C31.2191 11.4079 31.2191 11.4079 28.6445 9.66583L20.227 4.80958C19.7799 4.54749 19.1478 4.42416 18.5003 4.42416Z" fill="black"/>
<path d="M18.5 24.2812C15.3088 24.2812 12.7188 21.6912 12.7188 18.5C12.7188 15.3088 15.3088 12.7188 18.5 12.7188C21.6912 12.7188 24.2812 15.3088 24.2812 18.5C24.2812 21.6912 21.6912 24.2812 18.5 24.2812ZM18.5 15.0312C16.5883 15.0312 15.0312 16.5883 15.0312 18.5C15.0312 20.4117 16.5883 21.9688 18.5 21.9688C20.4117 21.9688 21.9688 20.4117 21.9688 18.5C21.9688 16.5883 20.4117 15.0312 18.5 15.0312Z" fill="black"/>
</svg>
